mtllib materials.mtl
v 0.03999999 0 -0.1025001
v 0.03464101 -0.01999998 -0.1025001
v 0.03464101 -0.01999998 0.5074999
v 0.03999999 0 0.5074999
v 0.02 -0.03464103 -0.1025001
v 0.02 -0.03464103 0.5074999
v -1.490116E-08 -0.03999996 -0.1025001
v -1.490116E-08 -0.03999996 0.5074999
v -0.02000001 -0.03464103 -0.1025001
v -0.02000001 -0.03464103 0.5074999
v -0.03464103 -0.01999998 -0.1025001
v -0.03464103 -0.01999998 0.5074999
v -0.03999999 0 -0.1025001
v -0.03999999 0 0.5074999
v -0.034641 0.01999998 -0.1025001
v -0.034641 0.01999998 0.5074999
v -0.01999998 0.03464103 -0.1025001
v -0.01999998 0.03464103 0.5074999
v 1.490116E-08 0.03999996 -0.1025001
v 1.490116E-08 0.03999996 0.5074999
v 0.02000001 0.03464103 -0.1025001
v 0.02000001 0.03464103 0.5074999
v 0.03464103 0.01999998 -0.1025001
v 0.03464103 0.01999998 0.5074999
v 0.03999999 0 -0.3024999
v 0.03464101 -0.01999998 -0.3024999
v 0.03464101 -0.01999998 -0.1025
v 0.03999999 0 -0.1025
v 0.02 -0.03464103 -0.3024999
v 0.02 -0.03464103 -0.1025
v -1.490116E-08 -0.03999996 -0.3024999
v -1.490116E-08 -0.03999996 -0.1025
v -0.02000001 -0.03464103 -0.3024999
v -0.02000001 -0.03464103 -0.1025
v -0.03464103 -0.01999998 -0.3024999
v -0.03464103 -0.01999998 -0.1025
v -0.03999999 0 -0.3024999
v -0.03999999 0 -0.1025
v -0.034641 0.01999998 -0.3024999
v -0.034641 0.01999998 -0.1025
v -0.01999998 0.03464103 -0.3024999
v -0.01999998 0.03464103 -0.1025
v 1.490116E-08 0.03999996 -0.3024999
v 1.490116E-08 0.03999996 -0.1025
v 0.02000001 0.03464103 -0.3024999
v 0.02000001 0.03464103 -0.1025
v 0.03464103 0.01999998 -0.3024999
v 0.03464103 0.01999998 -0.1025
vn 1 -1.788139E-07 -5.960464E-08
vn 0.8660253 -0.5000002 -5.161914E-08
vn 0.4999998 -0.8660256 -2.980232E-08
vn -2.8213E-07 -1 2.605402E-15
vn -0.5000002 -0.8660253 2.980233E-08
vn -0.8660255 -0.4999999 5.161914E-08
vn -1 2.662367E-07 5.960464E-08
vn -0.8660252 0.5000004 5.161913E-08
vn -0.4999997 0.8660256 2.980232E-08
vn 2.503434E-07 1 -7.107783E-16
vn 0.5000001 0.8660254 -2.980232E-08
vn 0.8660257 0.4999996 -5.161915E-08
vn 0 -5.960464E-08 -1
vn 0 5.960464E-08 1
vn 1 -1.788139E-07 -5.960464E-08
vn 0.8660253 -0.5000002 -5.161914E-08
vn 0.4999998 -0.8660256 -2.980232E-08
vn -2.8213E-07 -1 2.605402E-15
vn -0.5000002 -0.8660253 2.980233E-08
vn -0.8660255 -0.4999999 5.161914E-08
vn -1 2.662367E-07 5.960464E-08
vn -0.8660252 0.5000004 5.161913E-08
vn -0.4999997 0.8660256 2.980232E-08
vn 2.503434E-07 1 -7.107783E-16
vn 0.5000001 0.8660254 -2.980232E-08
vn 0.8660257 0.4999996 -5.161915E-08
vn 0 -5.960464E-08 -1
vn 0 5.960464E-08 1
vt 0.1118302 0.1290349
vt 0.1106677 0.1274074
vt 0.1603055 0.09195192
vt 0.1614679 0.09357939
vt 0.07096989 0.1406477
vt 0.07025491 0.1387799
vt 0.1272239 0.1169731
vt 0.1279388 0.1188409
vt 0.04616072 0.0917507
vt 0.04555115 0.08984587
vt 0.1036488 0.07125385
vt 0.1042584 0.07315869
vt 0.02145824 0.01251167
vt 0.02078557 0.01062819
vt 0.07823183 -0.00988834
vt 0.0789045 -0.008004856
vt -0.02053764 -0.06732532
vt -0.02154076 -0.06905556
vt 0.03123179 -0.09965064
vt 0.0322349 -0.0979204
vt -0.1324143 -0.04111516
vt -0.13438 -0.04148386
vt -0.1231347 -0.1014384
vt -0.1211689 -0.1010697
vt -0.1118302 0.1290349
vt -0.1129927 0.1306624
vt -0.1626304 0.09520687
vt -0.1614679 0.0935794
vt -0.07096988 0.1406477
vt -0.07168486 0.1425155
vt -0.1286538 0.1207087
vt -0.1279388 0.1188409
vt -0.04616072 0.0917507
vt -0.0467703 0.09365554
vt -0.104868 0.07506351
vt -0.1042584 0.07315868
vt -0.02145824 0.01251168
vt -0.02213092 0.01439516
vt -0.07957718 -0.006121366
vt -0.0789045 -0.00800485
vt 0.02053761 -0.0673253
vt 0.0195345 -0.06559505
vt -0.03323805 -0.09619012
vt -0.03223493 -0.09792037
vt 0.1324143 -0.04111503
vt 0.1304486 -0.04074633
vt 0.1192034 -0.1007009
vt 0.1211691 -0.1010696
vt -0.1437952 0.09701324
vt -0.1457595 0.09635848
vt -0.1471333 0.09480928
vt -0.1475484 0.09278077
vt -0.1468936 0.09081647
vt -0.1453444 0.08944272
vt -0.1433159 0.08902761
vt -0.1413516 0.08968238
vt -0.1399778 0.09123157
vt -0.1395627 0.09326009
vt -0.1402175 0.09522439
vt -0.1417667 0.09659813
vt 0.1417667 0.09659813
vt 0.1402175 0.09522439
vt 0.1395627 0.09326009
vt 0.1399778 0.09123157
vt 0.1413516 0.08968238
vt 0.1433159 0.08902761
vt 0.1453444 0.08944272
vt 0.1468936 0.09081647
vt 0.1475484 0.09278077
vt 0.1471333 0.09480928
vt 0.1457595 0.09635848
vt 0.1437952 0.09701324
vt 0.09555553 0.1406597
vt 0.09439305 0.1390322
vt 0.1106677 0.1274074
vt 0.1118302 0.1290349
vt 0.05229155 0.1477975
vt 0.05157657 0.1459297
vt 0.07025491 0.1387799
vt 0.07096989 0.1406477
vt 0.02711233 0.09784644
vt 0.02650275 0.0959416
vt 0.04555116 0.08984586
vt 0.04616074 0.0917507
vt 0.002623414 0.0192384
vt 0.001950741 0.01735491
vt 0.02078558 0.01062818
vt 0.02145825 0.01251167
vt -0.0378401 -0.05729415
vt -0.03884322 -0.0590244
vt -0.02154075 -0.06905557
vt -0.02053763 -0.06732532
vt -0.1361012 -0.02145796
vt -0.1380669 -0.02182666
vt -0.13438 -0.04148388
vt -0.1324142 -0.04111518
vt -0.09555551 0.1406597
vt -0.09671799 0.1422871
vt -0.1129927 0.1306624
vt -0.1118302 0.1290349
vt -0.05229154 0.1477975
vt -0.05300652 0.1496653
vt -0.07168487 0.1425155
vt -0.07096989 0.1406477
vt -0.02711233 0.09784643
vt -0.0277219 0.09975128
vt -0.04677031 0.09365553
vt -0.04616074 0.0917507
vt -0.002623416 0.0192384
vt -0.003296089 0.02112189
vt -0.02213093 0.01439516
vt -0.02145826 0.01251167
vt 0.03784008 -0.05729414
vt 0.03683696 -0.05556389
vt 0.01953449 -0.06559506
vt 0.02053761 -0.06732531
vt 0.1361013 -0.02145782
vt 0.1341356 -0.02108913
vt 0.1304486 -0.04074635
vt 0.1324143 -0.04111504
vt -0.1437952 0.09701324
vt -0.1457595 0.09635848
vt -0.1471333 0.09480928
vt -0.1475484 0.09278077
vt -0.1468936 0.09081647
vt -0.1453444 0.08944272
vt -0.1433159 0.08902761
vt -0.1413516 0.08968238
vt -0.1399778 0.09123157
vt -0.1395627 0.09326009
vt -0.1402175 0.09522439
vt -0.1417667 0.09659813
vt 0.1417667 0.09659813
vt 0.1402175 0.09522439
vt 0.1395627 0.09326009
vt 0.1399778 0.09123157
vt 0.1413516 0.08968238
vt 0.1433159 0.08902761
vt 0.1453444 0.08944272
vt 0.1468936 0.09081647
vt 0.1475484 0.09278077
vt 0.1471333 0.09480928
vt 0.1457595 0.09635848
vt 0.1437952 0.09701324
o group1130318182
g mesh1130318182
usemtl mat21
f 4/4/1 3/3/1 2/2/1 1/1/1
f 3/8/2 6/7/2 5/6/2 2/5/2
f 6/12/3 8/11/3 7/10/3 5/9/3
f 8/16/4 10/15/4 9/14/4 7/13/4
f 10/20/5 12/19/5 11/18/5 9/17/5
f 12/24/6 14/23/6 13/22/6 11/21/6
f 14/28/7 16/27/7 15/26/7 13/25/7
f 16/32/8 18/31/8 17/30/8 15/29/8
f 18/36/9 20/35/9 19/34/9 17/33/9
f 20/40/10 22/39/10 21/38/10 19/37/10
f 22/44/11 24/43/11 23/42/11 21/41/11
f 24/48/12 4/47/12 1/46/12 23/45/12
f 1/60/13 2/59/13 5/58/13 7/57/13 9/56/13 11/55/13 13/54/13 15/53/13 17/52/13 19/51/13 21/50/13 23/49/13
usemtl mat20
f 24/72/14 22/71/14 20/70/14 18/69/14 16/68/14 14/67/14 12/66/14 10/65/14 8/64/14 6/63/14 3/62/14 4/61/14
o group1947523472
g mesh1947523472
usemtl mat19
f 28/76/15 27/75/15 26/74/15 25/73/15
f 27/80/16 30/79/16 29/78/16 26/77/16
f 30/84/17 32/83/17 31/82/17 29/81/17
f 32/88/18 34/87/18 33/86/18 31/85/18
f 34/92/19 36/91/19 35/90/19 33/89/19
f 36/96/20 38/95/20 37/94/20 35/93/20
f 38/100/21 40/99/21 39/98/21 37/97/21
f 40/104/22 42/103/22 41/102/22 39/101/22
f 42/108/23 44/107/23 43/106/23 41/105/23
f 44/112/24 46/111/24 45/110/24 43/109/24
f 46/116/25 48/115/25 47/114/25 45/113/25
f 48/120/26 28/119/26 25/118/26 47/117/26
f 25/132/27 26/131/27 29/130/27 31/129/27 33/128/27 35/127/27 37/126/27 39/125/27 41/124/27 43/123/27 45/122/27 47/121/27
f 48/144/28 46/143/28 44/142/28 42/141/28 40/140/28 38/139/28 36/138/28 34/137/28 32/136/28 30/135/28 27/134/28 28/133/28
