{
	"asset":{
		"generator":"Khronos glTF Blender I/O v4.2.60",
		"version":"2.0"
	},
	"scene":0,
	"scenes":[
		{
			"name":"Scene",
			"nodes":[
				0
			]
		}
	],
	"nodes":[
		{
			"mesh":0,
			"name":"TheodoraCabinet"
		}
	],
	"materials":[
		{
			"doubleSided":true,
			"name":"TheodoraCabinet",
			"normalTexture":{
				"index":0
			},
			"pbrMetallicRoughness":{
				"baseColorTexture":{
					"index":1
				},
				"metallicRoughnessTexture":{
					"index":2
				}
			}
		},
		{
			"alphaMode":"BLEND",
			"doubleSided":true,
			"name":"TheodoraCabinetTransparent",
			"pbrMetallicRoughness":{
				"baseColorFactor":[
					1,
					1,
					1,
					0.10000000149011612
				],
				"baseColorTexture":{
					"index":3,
					"texCoord":2
				},
				"metallicFactor":0,
				"metallicRoughnessTexture":{
					"index":4,
					"texCoord":2
				}
			}
		}
	],
	"meshes":[
		{
			"name":"Cube.008",
			"primitives":[
				{
					"attributes":{
						"POSITION":0,
						"NORMAL":1,
						"TEXCOORD_0":2,
						"TEXCOORD_1":3,
						"TEXCOORD_2":4
					},
					"indices":5,
					"material":0
				},
				{
					"attributes":{
						"POSITION":6,
						"NORMAL":7,
						"TEXCOORD_0":8,
						"TEXCOORD_1":9,
						"TEXCOORD_2":10
					},
					"indices":11,
					"material":1
				}
			]
		}
	],
	"textures":[
		{
			"sampler":0,
			"source":0
		},
		{
			"sampler":0,
			"source":1
		},
		{
			"sampler":0,
			"source":2
		},
		{
			"sampler":0,
			"source":3
		},
		{
			"sampler":0,
			"source":4
		}
	],
	"images":[
		{
			"mimeType":"image/png",
			"name":"TheodoraCabinetNormal",
			"uri":"TheodoraCabinetNormal.png"
		},
		{
			"mimeType":"image/png",
			"name":"TheodoraCabinetDiffuse",
			"uri":"TheodoraCabinetDiffuse.png"
		},
		{
			"mimeType":"image/png",
			"name":"TheodoraCabinetMetallic-TheodoraCabinetRoughness",
			"uri":"TheodoraCabinetMetallic-TheodoraCabinetRoughness.png"
		},
		{
			"mimeType":"image/png",
			"name":"TheodoraCabinetDoorDiffuse",
			"uri":"TheodoraCabinetDoorDiffuse.png"
		},
		{
			"mimeType":"image/png",
			"name":"TheodoraCabinetDoorRoughness",
			"uri":"TheodoraCabinetDoorRoughness.png"
		}
	],
	"accessors":[
		{
			"bufferView":0,
			"componentType":5126,
			"count":6453,
			"max":[
				0.6068667769432068,
				2.0899999141693115,
				0.23619814217090607
			],
			"min":[
				-0.6068667769432068,
				-4.76837158203125e-06,
				-0.23941510915756226
			],
			"type":"VEC3"
		},
		{
			"bufferView":1,
			"componentType":5126,
			"count":6453,
			"type":"VEC3"
		},
		{
			"bufferView":2,
			"componentType":5126,
			"count":6453,
			"type":"VEC2"
		},
		{
			"bufferView":3,
			"componentType":5126,
			"count":6453,
			"type":"VEC2"
		},
		{
			"bufferView":4,
			"componentType":5126,
			"count":6453,
			"type":"VEC2"
		},
		{
			"bufferView":5,
			"componentType":5123,
			"count":14088,
			"type":"SCALAR"
		},
		{
			"bufferView":6,
			"componentType":5126,
			"count":48,
			"max":[
				0.40206408500671387,
				1.9734210968017578,
				0.1571921408176422
			],
			"min":[
				-0.40206408500671387,
				0.5971564054489136,
				0.1468873918056488
			],
			"type":"VEC3"
		},
		{
			"bufferView":7,
			"componentType":5126,
			"count":48,
			"type":"VEC3"
		},
		{
			"bufferView":8,
			"componentType":5126,
			"count":48,
			"type":"VEC2"
		},
		{
			"bufferView":9,
			"componentType":5126,
			"count":48,
			"type":"VEC2"
		},
		{
			"bufferView":10,
			"componentType":5126,
			"count":48,
			"type":"VEC2"
		},
		{
			"bufferView":11,
			"componentType":5123,
			"count":72,
			"type":"SCALAR"
		}
	],
	"bufferViews":[
		{
			"buffer":0,
			"byteLength":77436,
			"byteOffset":0,
			"target":34962
		},
		{
			"buffer":0,
			"byteLength":77436,
			"byteOffset":77436,
			"target":34962
		},
		{
			"buffer":0,
			"byteLength":51624,
			"byteOffset":154872,
			"target":34962
		},
		{
			"buffer":0,
			"byteLength":51624,
			"byteOffset":206496,
			"target":34962
		},
		{
			"buffer":0,
			"byteLength":51624,
			"byteOffset":258120,
			"target":34962
		},
		{
			"buffer":0,
			"byteLength":28176,
			"byteOffset":309744,
			"target":34963
		},
		{
			"buffer":0,
			"byteLength":576,
			"byteOffset":337920,
			"target":34962
		},
		{
			"buffer":0,
			"byteLength":576,
			"byteOffset":338496,
			"target":34962
		},
		{
			"buffer":0,
			"byteLength":384,
			"byteOffset":339072,
			"target":34962
		},
		{
			"buffer":0,
			"byteLength":384,
			"byteOffset":339456,
			"target":34962
		},
		{
			"buffer":0,
			"byteLength":384,
			"byteOffset":339840,
			"target":34962
		},
		{
			"buffer":0,
			"byteLength":144,
			"byteOffset":340224,
			"target":34963
		}
	],
	"samplers":[
		{
			"magFilter":9729,
			"minFilter":9987
		}
	],
	"buffers":[
		{
			"byteLength":340368,
			"uri":"TheodoraCabinet.bin"
		}
	]
}
